<?xml version="1.0" encoding="UTF-8"?>
<!DOCTYPE svg PUBLIC "-//W3C//DTD SVG 1.1//EN" "http://www.w3.org/Graphics/SVG/1.1/DTD/svg11.dtd">
<!-- Creator: CorelDRAW 2021 (64-Bit Оценочная версия) -->
<svg xmlns="http://www.w3.org/2000/svg" xml:space="preserve" width="31mm" height="34.2947mm" version="1.1" style="shape-rendering:geometricPrecision; text-rendering:geometricPrecision; image-rendering:optimizeQuality; fill-rule:evenodd; clip-rule:evenodd"
viewBox="0 0 1181.54 1307.11"
 xmlns:xlink="http://www.w3.org/1999/xlink"
 xmlns:xodm="http://www.corel.com/coreldraw/odm/2003">
 <defs>
  <style type="text/css">
   <![CDATA[
    .fil0 {fill:black}
   ]]>
  </style>
 </defs>
 <g id="Слой_x0020_1">
  <metadata id="CorelCorpID_0Corel-Layer"/>
  <g id="_1761917331952">
   <path class="fil0" d="M589.83 599.95l0 707.16c19,-1.58 244.06,-118.2 266.36,-129.35l297.87 -148.9c38.02,-18.62 25.5,-38.49 25.5,-122.56l0 -597.39c-12.85,1.07 -60.52,27.71 -74.89,34.89l-365.92 182.97c-25.4,12.7 -47.79,23.89 -73.18,36.59 -16.68,8.35 -61.14,33.19 -75.74,36.6z"/>
   <path class="fil0" d="M546.43 1289.24l0 -689.29 -545.84 -271.62 -0.59 659.76c-0.13,34.19 10.35,33.11 44.35,50.11l376.14 188.06c42.52,21.27 84.76,41.19 125.94,62.98z"/>
   <path class="fil0" d="M12.86 283.38l0 5.11c14.94,3.47 466.65,232.03 528.46,262.95 13.34,6.68 21.96,16.02 36.63,8.75l423.76 -212.14c20.83,-10.42 130.17,-67 142.12,-69.78l-536.48 -262.59c-21.94,-8.88 -30.1,-14.69 -37.61,-15.68l-4.53 0c-10.1,1.31 -23.5,11.37 -68.98,34.04 -90.98,45.34 -184.7,97.52 -275.72,142.97 -12.86,6.41 -20.97,11.72 -33.14,17.91 -12.92,6.56 -22.84,11.42 -35.78,17.83l-68.96 35.72c-17.6,8.79 -52.14,30.81 -69.75,34.92z"/>
  </g>
 </g>
</svg>
