<?xml version="1.0" encoding="UTF-8"?>
<!DOCTYPE svg PUBLIC "-//W3C//DTD SVG 1.1//EN" "http://www.w3.org/Graphics/SVG/1.1/DTD/svg11.dtd">
<!-- Creator: CorelDRAW 2021 (64-Bit Оценочная версия) -->
<svg xmlns="http://www.w3.org/2000/svg" xml:space="preserve" width="31mm" height="30.9999mm" version="1.1" style="shape-rendering:geometricPrecision; text-rendering:geometricPrecision; image-rendering:optimizeQuality; fill-rule:evenodd; clip-rule:evenodd"
viewBox="0 0 574.77 574.77"
 xmlns:xlink="http://www.w3.org/1999/xlink"
 xmlns:xodm="http://www.corel.com/coreldraw/odm/2003">
 <defs>
  <style type="text/css">
   <![CDATA[
    .fil0 {fill:black}
   ]]>
  </style>
 </defs>
 <g id="Слой_x0020_1">
  <metadata id="CorelCorpID_0Corel-Layer"/>
  <path class="fil0" d="M184.11 415.36l198.7 0 0 126.85 -326.68 0c3.28,-4.89 10.83,-11.39 15.44,-16 5.51,-5.51 10.2,-10.2 15.72,-15.72l79.7 -79.7c2.99,-2.99 13.41,-15.44 17.12,-15.44zm216.69 159.41l-385.15 0c-8.95,-0.04 -15.65,-6.76 -15.65,-15.72l0 -385.05c0,-8.04 14.31,-19.36 19.37,-24.42l130.78 -130.78c4.99,-4.99 15.86,-18.8 23.85,-18.8l385.05 0c8.98,0 15.72,6.73 15.72,15.72l0 385.05c0,8.04 -14.31,19.36 -19.37,24.42l-130.78 130.78c-4.99,4.99 -15.83,18.77 -23.82,18.8zm14.84 -55.85l-0.28 -103.56 103.28 0 -103 103.56zm-383.08 -0.28l0 -326.68 126.85 0 0 198.7c0,4 -58.79,60.47 -62.58,64.27l-47.71 47.71c-4.64,4.64 -11.7,12.75 -16.56,16zm382.81 -334.53c0,-4 58.79,-60.47 62.58,-64.27l47.71 -47.71c4.64,-4.64 11.7,-12.75 16.56,-16l0 326.68 -126.85 0 0 -198.7zm-223.4 7.86l190.84 0 0 190.84 -190.84 0 0 -190.84zm-32.83 -136.11l0.28 103.56 -103.28 0 103 -103.56zm231.53 103.56l-198.7 0 0 -126.85 326.68 0c-3.41,5.09 -98.92,99.48 -110.86,111.42 -2.99,2.99 -13.41,15.44 -17.12,15.44z"/>
 </g>
</svg>
