<?xml version="1.0" encoding="UTF-8"?>
<!DOCTYPE svg PUBLIC "-//W3C//DTD SVG 1.1//EN" "http://www.w3.org/Graphics/SVG/1.1/DTD/svg11.dtd">
<!-- Creator: CorelDRAW 2021 (64-Bit Оценочная версия) -->
<svg xmlns="http://www.w3.org/2000/svg" xml:space="preserve" width="30.8685mm" height="22.3086mm" version="1.1" style="shape-rendering:geometricPrecision; text-rendering:geometricPrecision; image-rendering:optimizeQuality; fill-rule:evenodd; clip-rule:evenodd"
viewBox="0 0 500.2 361.5"
 xmlns:xlink="http://www.w3.org/1999/xlink"
 xmlns:xodm="http://www.corel.com/coreldraw/odm/2003">
 <defs>
  <style type="text/css">
   <![CDATA[
    .fil0 {fill:black}
   ]]>
  </style>
 </defs>
 <g id="Слой_x0020_1">
  <metadata id="CorelCorpID_0Corel-Layer"/>
  <path class="fil0" d="M27.74 78.43l15.92 0c0.89,-5.37 5.58,-9.51 11.2,-9.51l11.16 0c0.47,-2.28 2.5,-4 4.91,-4l13.54 0c2.41,0 4.44,1.72 4.91,4l12.01 0c5.62,0 10.31,4.13 11.2,9.51l23.21 0c0.21,-0.41 0.42,-0.82 0.64,-1.22l32.19 -58.7c6.43,-11.72 17.9,-18.52 31.27,-18.52l100.39 0c13.37,0 24.84,6.79 31.27,18.52l32.19 58.7c0.22,0.41 0.44,0.81 0.64,1.22l93.98 0c23,0 41.82,18.82 41.82,41.82l0 213.5c0,15.26 -12.48,27.74 -27.74,27.74l-444.72 0c-15.26,0 -27.74,-12.48 -27.74,-27.74l0 -227.58c0,-15.26 12.48,-27.74 27.74,-27.74zm425.11 24.9c11.47,0 20.77,9.3 20.77,20.77 0,11.47 -9.3,20.77 -20.77,20.77 -11.47,0 -20.77,-9.3 -20.77,-20.77 0,-11.47 9.3,-20.77 20.77,-20.77zm-202.75 -22.81c66.98,0 121.28,54.3 121.28,121.28 0,66.98 -54.3,121.28 -121.28,121.28 -66.98,0 -121.28,-54.3 -121.28,-121.28 0,-66.98 54.3,-121.28 121.28,-121.28zm-0 35.42c47.42,0 85.87,38.44 85.87,85.86 0,47.42 -38.44,85.87 -85.87,85.87 -47.42,0 -85.86,-38.44 -85.86,-85.87 0,-47.42 38.44,-85.86 85.86,-85.86z"/>
 </g>
</svg>
