<?xml version="1.0" encoding="UTF-8"?>
<!DOCTYPE svg PUBLIC "-//W3C//DTD SVG 1.1//EN" "http://www.w3.org/Graphics/SVG/1.1/DTD/svg11.dtd">
<!-- Creator: CorelDRAW 2021 (64-Bit Оценочная версия) -->
<svg xmlns="http://www.w3.org/2000/svg" xml:space="preserve" width="30.5552mm" height="30.5552mm" version="1.1" style="shape-rendering:geometricPrecision; text-rendering:geometricPrecision; image-rendering:optimizeQuality; fill-rule:evenodd; clip-rule:evenodd"
viewBox="0 0 738.71 738.71"
 xmlns:xlink="http://www.w3.org/1999/xlink"
 xmlns:xodm="http://www.corel.com/coreldraw/odm/2003">
 <defs>
  <style type="text/css">
   <![CDATA[
    .fil2 {fill:black}
    .fil0 {fill:black;fill-rule:nonzero}
    .fil1 {fill:white;fill-rule:nonzero}
   ]]>
  </style>
 </defs>
 <g id="Слой_x0020_1">
  <metadata id="CorelCorpID_0Corel-Layer"/>
  <g id="_1761815050080">
   <path class="fil0" d="M328.02 0l82.68 0c11.91,0 21.88,8.44 23.84,20.19l13.49 80.58c19.5,5.7 38.12,13.47 55.61,23.05l66.53 -47.45c9.7,-6.92 22.71,-5.84 31.14,2.59l58.46 58.46c8.42,8.42 9.5,21.44 2.59,31.13l-47.45 66.53c9.58,17.49 17.34,36.11 23.05,55.61l80.58 13.48c11.75,1.97 20.19,11.93 20.19,23.84l-0 82.68c0,11.91 -8.44,21.88 -20.18,23.84l-80.59 13.49c-5.7,19.5 -13.46,38.12 -23.05,55.61l47.46 66.53c6.92,9.7 5.84,22.71 -2.59,31.14l-58.46 58.46c-8.42,8.42 -21.44,9.5 -31.13,2.59l-66.53 -47.46c-17.48,9.58 -36.11,17.34 -55.61,23.04l-13.49 80.59c-1.97,11.75 -11.93,20.19 -23.84,20.19l-82.68 -0c-11.91,0 -21.88,-8.44 -23.84,-20.18l-13.49 -80.59c-19.5,-5.7 -38.12,-13.46 -55.61,-23.04l-66.53 47.46c-9.7,6.92 -22.71,5.84 -31.14,-2.59l-58.46 -58.46c-8.42,-8.42 -9.5,-21.44 -2.59,-31.13l47.46 -66.53c-9.58,-17.48 -17.34,-36.11 -23.04,-55.61l-80.59 -13.49c-11.75,-1.97 -20.19,-11.93 -20.19,-23.84l0 -82.68c-0,-11.91 8.44,-21.88 20.18,-23.84l80.59 -13.49c5.7,-19.5 13.47,-38.12 23.05,-55.61l-47.46 -66.53c-6.92,-9.7 -5.84,-22.71 2.59,-31.14l58.46 -58.46c8.42,-8.42 21.44,-9.5 31.13,-2.59l66.53 47.46c17.48,-9.58 36.11,-17.34 55.61,-23.05l13.49 -80.58c1.97,-11.75 11.93,-20.19 23.84,-20.19z"/>
   <path class="fil1" d="M369.35 214.19c85.69,0 155.16,69.47 155.16,155.16 0,85.69 -69.47,155.16 -155.16,155.16 -85.69,0 -155.16,-69.47 -155.16,-155.16 0,-85.69 69.47,-155.16 155.16,-155.16z"/>
   <circle class="fil2" cx="369.35" cy="369.35" r="63.43"/>
  </g>
 </g>
</svg>
